<svg width="65" height="26" viewBox="0 0 65 26" fill="none" xmlns="http://www.w3.org/2000/svg">
<path d="M3.91056 12.12C3.48656 12.12 3.08656 12.06 2.71056 11.94C2.33456 11.82 1.99056 11.64 1.67856 11.4C1.36656 11.16 1.09056 10.864 0.850563 10.512L1.49856 9.792C1.87456 10.328 2.25856 10.704 2.65056 10.92C3.05056 11.136 3.49856 11.244 3.99456 11.244C4.35456 11.244 4.68256 11.184 4.97856 11.064C5.27456 10.944 5.50656 10.776 5.67456 10.56C5.84256 10.344 5.92656 10.096 5.92656 9.816C5.92656 9.632 5.89456 9.468 5.83056 9.324C5.77456 9.18 5.68656 9.052 5.56656 8.94C5.44656 8.828 5.29856 8.728 5.12256 8.64C4.94656 8.552 4.74256 8.472 4.51056 8.4C4.28656 8.328 4.03456 8.256 3.75456 8.184C3.34656 8.088 2.98656 7.976 2.67456 7.848C2.37056 7.712 2.11056 7.548 1.89456 7.356C1.68656 7.164 1.52656 6.944 1.41456 6.696C1.31056 6.44 1.25856 6.14 1.25856 5.796C1.25856 5.468 1.32656 5.164 1.46256 4.884C1.60656 4.604 1.80256 4.364 2.05056 4.164C2.29856 3.956 2.59056 3.796 2.92656 3.684C3.26256 3.572 3.62256 3.516 4.00656 3.516C4.43856 3.516 4.82256 3.576 5.15856 3.696C5.50256 3.808 5.80656 3.976 6.07056 4.2C6.33456 4.424 6.56256 4.692 6.75456 5.004L6.09456 5.652C5.92656 5.388 5.73456 5.16 5.51856 4.968C5.31056 4.776 5.07856 4.632 4.82256 4.536C4.57456 4.432 4.29856 4.38 3.99456 4.38C3.64256 4.38 3.33056 4.44 3.05856 4.56C2.79456 4.68 2.58656 4.848 2.43456 5.064C2.28256 5.272 2.20656 5.512 2.20656 5.784C2.20656 5.984 2.24256 6.164 2.31456 6.324C2.38656 6.476 2.49856 6.612 2.65056 6.732C2.81056 6.844 3.01456 6.948 3.26256 7.044C3.51856 7.132 3.82256 7.216 4.17456 7.296C4.59056 7.392 4.96256 7.508 5.29056 7.644C5.62656 7.78 5.91056 7.944 6.14256 8.136C6.38256 8.32 6.56256 8.536 6.68256 8.784C6.81056 9.032 6.87456 9.316 6.87456 9.636C6.87456 10.132 6.75056 10.568 6.50256 10.944C6.25456 11.312 5.90656 11.6 5.45856 11.808C5.01856 12.016 4.50256 12.12 3.91056 12.12ZM11.0433 12.12C10.4513 12.12 9.92334 11.98 9.45934 11.7C8.99534 11.412 8.62734 11.024 8.35534 10.536C8.09134 10.04 7.95934 9.48 7.95934 8.856C7.95934 8.232 8.09134 7.676 8.35534 7.188C8.62734 6.692 8.99534 6.304 9.45934 6.024C9.92334 5.744 10.4553 5.604 11.0553 5.604C11.5913 5.604 12.0793 5.712 12.5193 5.928C12.9593 6.136 13.3113 6.428 13.5753 6.804L13.0473 7.452C12.8953 7.252 12.7113 7.076 12.4953 6.924C12.2873 6.772 12.0593 6.656 11.8113 6.576C11.5713 6.488 11.3313 6.444 11.0913 6.444C10.6673 6.444 10.2873 6.552 9.95134 6.768C9.61534 6.976 9.34734 7.26 9.14734 7.62C8.95534 7.98 8.85934 8.392 8.85934 8.856C8.85934 9.32 8.95534 9.736 9.14734 10.104C9.34734 10.464 9.61534 10.748 9.95134 10.956C10.2873 11.164 10.6633 11.268 11.0793 11.268C11.3193 11.268 11.5553 11.232 11.7873 11.16C12.0193 11.08 12.2393 10.968 12.4473 10.824C12.6553 10.68 12.8473 10.5 13.0233 10.284L13.5513 10.932C13.2793 11.292 12.9153 11.58 12.4593 11.796C12.0033 12.012 11.5313 12.12 11.0433 12.12ZM14.7198 12V5.736H15.6198L15.6438 7.404L15.5478 7.176C15.6358 6.896 15.7758 6.636 15.9678 6.396C16.1678 6.156 16.4038 5.964 16.6758 5.82C16.9478 5.676 17.2478 5.604 17.5758 5.604C17.7118 5.604 17.8398 5.616 17.9598 5.64C18.0798 5.656 18.1798 5.68 18.2598 5.712L18.0078 6.72C17.9038 6.672 17.7958 6.64 17.6838 6.624C17.5798 6.6 17.4798 6.588 17.3838 6.588C17.1118 6.588 16.8678 6.636 16.6518 6.732C16.4358 6.828 16.2518 6.964 16.0998 7.14C15.9478 7.308 15.8318 7.504 15.7518 7.728C15.6718 7.952 15.6318 8.192 15.6318 8.448V12H14.7198ZM21.6988 12.12C21.0748 12.12 20.5188 11.98 20.0308 11.7C19.5508 11.42 19.1708 11.032 18.8908 10.536C18.6188 10.04 18.4828 9.476 18.4828 8.844C18.4828 8.22 18.6188 7.664 18.8908 7.176C19.1708 6.688 19.5508 6.304 20.0308 6.024C20.5188 5.744 21.0748 5.604 21.6988 5.604C22.3148 5.604 22.8628 5.744 23.3428 6.024C23.8308 6.304 24.2108 6.688 24.4828 7.176C24.7628 7.664 24.9028 8.22 24.9028 8.844C24.9028 9.476 24.7628 10.04 24.4828 10.536C24.2108 11.032 23.8308 11.42 23.3428 11.7C22.8628 11.98 22.3148 12.12 21.6988 12.12ZM21.6988 11.268C22.1388 11.268 22.5308 11.164 22.8748 10.956C23.2188 10.74 23.4868 10.452 23.6788 10.092C23.8708 9.724 23.9668 9.308 23.9668 8.844C23.9668 8.38 23.8708 7.968 23.6788 7.608C23.4868 7.248 23.2188 6.968 22.8748 6.768C22.5308 6.56 22.1388 6.456 21.6988 6.456C21.2588 6.456 20.8628 6.56 20.5108 6.768C20.1668 6.968 19.8948 7.252 19.6948 7.62C19.5028 7.98 19.4108 8.388 19.4188 8.844C19.4108 9.308 19.5028 9.724 19.6948 10.092C19.8948 10.452 20.1668 10.74 20.5108 10.956C20.8628 11.164 21.2588 11.268 21.6988 11.268ZM26.2398 12V3.12H27.1398V12H26.2398ZM28.9352 12V3.12H29.8352V12H28.9352ZM37.5138 12.12C36.9458 12.12 36.4338 11.98 35.9778 11.7C35.5298 11.42 35.1738 11.036 34.9098 10.548C34.6538 10.052 34.5258 9.492 34.5258 8.868C34.5258 8.236 34.6578 7.676 34.9218 7.188C35.1858 6.692 35.5418 6.304 35.9898 6.024C36.4378 5.744 36.9418 5.604 37.5018 5.604C37.8138 5.604 38.1138 5.652 38.4018 5.748C38.6978 5.844 38.9618 5.98 39.1938 6.156C39.4258 6.324 39.6178 6.52 39.7698 6.744C39.9218 6.96 40.0138 7.188 40.0458 7.428L39.7698 7.332V3.12H40.6698V12H39.7818L39.7578 10.44L39.9858 10.356C39.9538 10.58 39.8618 10.8 39.7098 11.016C39.5658 11.224 39.3818 11.412 39.1578 11.58C38.9338 11.748 38.6778 11.88 38.3898 11.976C38.1098 12.072 37.8178 12.12 37.5138 12.12ZM37.6458 11.292C38.0618 11.292 38.4338 11.188 38.7618 10.98C39.0898 10.772 39.3458 10.484 39.5298 10.116C39.7218 9.748 39.8178 9.328 39.8178 8.856C39.8178 8.384 39.7218 7.968 39.5298 7.608C39.3458 7.24 39.0898 6.952 38.7618 6.744C38.4338 6.528 38.0618 6.42 37.6458 6.42C37.2138 6.42 36.8338 6.528 36.5058 6.744C36.1858 6.952 35.9298 7.24 35.7378 7.608C35.5538 7.968 35.4618 8.384 35.4618 8.856C35.4618 9.32 35.5538 9.736 35.7378 10.104C35.9218 10.472 36.1778 10.764 36.5058 10.98C36.8338 11.188 37.2138 11.292 37.6458 11.292ZM45.1949 12.12C44.5709 12.12 44.0149 11.98 43.5269 11.7C43.0469 11.42 42.6669 11.032 42.3869 10.536C42.1149 10.04 41.9789 9.476 41.9789 8.844C41.9789 8.22 42.1149 7.664 42.3869 7.176C42.6669 6.688 43.0469 6.304 43.5269 6.024C44.0149 5.744 44.5709 5.604 45.1949 5.604C45.8109 5.604 46.3589 5.744 46.8389 6.024C47.3269 6.304 47.7069 6.688 47.9789 7.176C48.2589 7.664 48.3989 8.22 48.3989 8.844C48.3989 9.476 48.2589 10.04 47.9789 10.536C47.7069 11.032 47.3269 11.42 46.8389 11.7C46.3589 11.98 45.8109 12.12 45.1949 12.12ZM45.1949 11.268C45.6349 11.268 46.0269 11.164 46.3709 10.956C46.7149 10.74 46.9829 10.452 47.1749 10.092C47.3669 9.724 47.4629 9.308 47.4629 8.844C47.4629 8.38 47.3669 7.968 47.1749 7.608C46.9829 7.248 46.7149 6.968 46.3709 6.768C46.0269 6.56 45.6349 6.456 45.1949 6.456C44.7549 6.456 44.3589 6.56 44.0069 6.768C43.6629 6.968 43.3909 7.252 43.1909 7.62C42.9989 7.98 42.9069 8.388 42.9149 8.844C42.9069 9.308 42.9989 9.724 43.1909 10.092C43.3909 10.452 43.6629 10.74 44.0069 10.956C44.3589 11.164 44.7549 11.268 45.1949 11.268ZM50.9536 12L48.7816 5.736L49.7416 5.724L51.4336 10.824L51.1336 10.8L52.9696 6.696H53.5096L55.3576 10.8L54.9976 10.824L56.7256 5.736H57.6736L55.5016 12H54.9736L53.0296 7.536L53.3896 7.56L51.5056 12H50.9536ZM58.7354 12V5.736H59.6234L59.6594 7.044L59.5154 7.104C59.5954 6.832 59.7514 6.584 59.9834 6.36C60.2154 6.136 60.4914 5.956 60.8114 5.82C61.1394 5.676 61.4754 5.604 61.8194 5.604C62.2834 5.604 62.6714 5.696 62.9834 5.88C63.2954 6.064 63.5314 6.348 63.6914 6.732C63.8514 7.116 63.9314 7.604 63.9314 8.196V12H63.0194V8.244C63.0194 7.828 62.9634 7.488 62.8514 7.224C62.7474 6.952 62.5834 6.752 62.3594 6.624C62.1354 6.496 61.8594 6.436 61.5314 6.444C61.2594 6.444 61.0074 6.492 60.7754 6.588C60.5434 6.676 60.3434 6.8 60.1754 6.96C60.0074 7.12 59.8754 7.304 59.7794 7.512C59.6834 7.72 59.6354 7.944 59.6354 8.184V12H59.1914C59.1354 12 59.0714 12 58.9994 12C58.9274 12 58.8394 12 58.7354 12Z" fill="#2B2B2B"/>
<path d="M3.91056 12.12C3.48656 12.12 3.08656 12.06 2.71056 11.94C2.33456 11.82 1.99056 11.64 1.67856 11.4C1.36656 11.16 1.09056 10.864 0.850563 10.512L1.49856 9.792C1.87456 10.328 2.25856 10.704 2.65056 10.92C3.05056 11.136 3.49856 11.244 3.99456 11.244C4.35456 11.244 4.68256 11.184 4.97856 11.064C5.27456 10.944 5.50656 10.776 5.67456 10.56C5.84256 10.344 5.92656 10.096 5.92656 9.816C5.92656 9.632 5.89456 9.468 5.83056 9.324C5.77456 9.18 5.68656 9.052 5.56656 8.94C5.44656 8.828 5.29856 8.728 5.12256 8.64C4.94656 8.552 4.74256 8.472 4.51056 8.4C4.28656 8.328 4.03456 8.256 3.75456 8.184C3.34656 8.088 2.98656 7.976 2.67456 7.848C2.37056 7.712 2.11056 7.548 1.89456 7.356C1.68656 7.164 1.52656 6.944 1.41456 6.696C1.31056 6.44 1.25856 6.14 1.25856 5.796C1.25856 5.468 1.32656 5.164 1.46256 4.884C1.60656 4.604 1.80256 4.364 2.05056 4.164C2.29856 3.956 2.59056 3.796 2.92656 3.684C3.26256 3.572 3.62256 3.516 4.00656 3.516C4.43856 3.516 4.82256 3.576 5.15856 3.696C5.50256 3.808 5.80656 3.976 6.07056 4.2C6.33456 4.424 6.56256 4.692 6.75456 5.004L6.09456 5.652C5.92656 5.388 5.73456 5.16 5.51856 4.968C5.31056 4.776 5.07856 4.632 4.82256 4.536C4.57456 4.432 4.29856 4.38 3.99456 4.38C3.64256 4.38 3.33056 4.44 3.05856 4.56C2.79456 4.68 2.58656 4.848 2.43456 5.064C2.28256 5.272 2.20656 5.512 2.20656 5.784C2.20656 5.984 2.24256 6.164 2.31456 6.324C2.38656 6.476 2.49856 6.612 2.65056 6.732C2.81056 6.844 3.01456 6.948 3.26256 7.044C3.51856 7.132 3.82256 7.216 4.17456 7.296C4.59056 7.392 4.96256 7.508 5.29056 7.644C5.62656 7.78 5.91056 7.944 6.14256 8.136C6.38256 8.32 6.56256 8.536 6.68256 8.784C6.81056 9.032 6.87456 9.316 6.87456 9.636C6.87456 10.132 6.75056 10.568 6.50256 10.944C6.25456 11.312 5.90656 11.6 5.45856 11.808C5.01856 12.016 4.50256 12.12 3.91056 12.12ZM11.0433 12.12C10.4513 12.12 9.92334 11.98 9.45934 11.7C8.99534 11.412 8.62734 11.024 8.35534 10.536C8.09134 10.04 7.95934 9.48 7.95934 8.856C7.95934 8.232 8.09134 7.676 8.35534 7.188C8.62734 6.692 8.99534 6.304 9.45934 6.024C9.92334 5.744 10.4553 5.604 11.0553 5.604C11.5913 5.604 12.0793 5.712 12.5193 5.928C12.9593 6.136 13.3113 6.428 13.5753 6.804L13.0473 7.452C12.8953 7.252 12.7113 7.076 12.4953 6.924C12.2873 6.772 12.0593 6.656 11.8113 6.576C11.5713 6.488 11.3313 6.444 11.0913 6.444C10.6673 6.444 10.2873 6.552 9.95134 6.768C9.61534 6.976 9.34734 7.26 9.14734 7.62C8.95534 7.98 8.85934 8.392 8.85934 8.856C8.85934 9.32 8.95534 9.736 9.14734 10.104C9.34734 10.464 9.61534 10.748 9.95134 10.956C10.2873 11.164 10.6633 11.268 11.0793 11.268C11.3193 11.268 11.5553 11.232 11.7873 11.16C12.0193 11.08 12.2393 10.968 12.4473 10.824C12.6553 10.68 12.8473 10.5 13.0233 10.284L13.5513 10.932C13.2793 11.292 12.9153 11.58 12.4593 11.796C12.0033 12.012 11.5313 12.12 11.0433 12.12ZM14.7198 12V5.736H15.6198L15.6438 7.404L15.5478 7.176C15.6358 6.896 15.7758 6.636 15.9678 6.396C16.1678 6.156 16.4038 5.964 16.6758 5.82C16.9478 5.676 17.2478 5.604 17.5758 5.604C17.7118 5.604 17.8398 5.616 17.9598 5.64C18.0798 5.656 18.1798 5.68 18.2598 5.712L18.0078 6.72C17.9038 6.672 17.7958 6.64 17.6838 6.624C17.5798 6.6 17.4798 6.588 17.3838 6.588C17.1118 6.588 16.8678 6.636 16.6518 6.732C16.4358 6.828 16.2518 6.964 16.0998 7.14C15.9478 7.308 15.8318 7.504 15.7518 7.728C15.6718 7.952 15.6318 8.192 15.6318 8.448V12H14.7198ZM21.6988 12.12C21.0748 12.12 20.5188 11.98 20.0308 11.7C19.5508 11.42 19.1708 11.032 18.8908 10.536C18.6188 10.04 18.4828 9.476 18.4828 8.844C18.4828 8.22 18.6188 7.664 18.8908 7.176C19.1708 6.688 19.5508 6.304 20.0308 6.024C20.5188 5.744 21.0748 5.604 21.6988 5.604C22.3148 5.604 22.8628 5.744 23.3428 6.024C23.8308 6.304 24.2108 6.688 24.4828 7.176C24.7628 7.664 24.9028 8.22 24.9028 8.844C24.9028 9.476 24.7628 10.04 24.4828 10.536C24.2108 11.032 23.8308 11.42 23.3428 11.7C22.8628 11.98 22.3148 12.12 21.6988 12.12ZM21.6988 11.268C22.1388 11.268 22.5308 11.164 22.8748 10.956C23.2188 10.74 23.4868 10.452 23.6788 10.092C23.8708 9.724 23.9668 9.308 23.9668 8.844C23.9668 8.38 23.8708 7.968 23.6788 7.608C23.4868 7.248 23.2188 6.968 22.8748 6.768C22.5308 6.56 22.1388 6.456 21.6988 6.456C21.2588 6.456 20.8628 6.56 20.5108 6.768C20.1668 6.968 19.8948 7.252 19.6948 7.62C19.5028 7.98 19.4108 8.388 19.4188 8.844C19.4108 9.308 19.5028 9.724 19.6948 10.092C19.8948 10.452 20.1668 10.74 20.5108 10.956C20.8628 11.164 21.2588 11.268 21.6988 11.268ZM26.2398 12V3.12H27.1398V12H26.2398ZM28.9352 12V3.12H29.8352V12H28.9352ZM37.5138 12.12C36.9458 12.12 36.4338 11.98 35.9778 11.7C35.5298 11.42 35.1738 11.036 34.9098 10.548C34.6538 10.052 34.5258 9.492 34.5258 8.868C34.5258 8.236 34.6578 7.676 34.9218 7.188C35.1858 6.692 35.5418 6.304 35.9898 6.024C36.4378 5.744 36.9418 5.604 37.5018 5.604C37.8138 5.604 38.1138 5.652 38.4018 5.748C38.6978 5.844 38.9618 5.98 39.1938 6.156C39.4258 6.324 39.6178 6.52 39.7698 6.744C39.9218 6.96 40.0138 7.188 40.0458 7.428L39.7698 7.332V3.12H40.6698V12H39.7818L39.7578 10.44L39.9858 10.356C39.9538 10.58 39.8618 10.8 39.7098 11.016C39.5658 11.224 39.3818 11.412 39.1578 11.58C38.9338 11.748 38.6778 11.88 38.3898 11.976C38.1098 12.072 37.8178 12.12 37.5138 12.12ZM37.6458 11.292C38.0618 11.292 38.4338 11.188 38.7618 10.98C39.0898 10.772 39.3458 10.484 39.5298 10.116C39.7218 9.748 39.8178 9.328 39.8178 8.856C39.8178 8.384 39.7218 7.968 39.5298 7.608C39.3458 7.24 39.0898 6.952 38.7618 6.744C38.4338 6.528 38.0618 6.42 37.6458 6.42C37.2138 6.42 36.8338 6.528 36.5058 6.744C36.1858 6.952 35.9298 7.24 35.7378 7.608C35.5538 7.968 35.4618 8.384 35.4618 8.856C35.4618 9.32 35.5538 9.736 35.7378 10.104C35.9218 10.472 36.1778 10.764 36.5058 10.98C36.8338 11.188 37.2138 11.292 37.6458 11.292ZM45.1949 12.12C44.5709 12.12 44.0149 11.98 43.5269 11.7C43.0469 11.42 42.6669 11.032 42.3869 10.536C42.1149 10.04 41.9789 9.476 41.9789 8.844C41.9789 8.22 42.1149 7.664 42.3869 7.176C42.6669 6.688 43.0469 6.304 43.5269 6.024C44.0149 5.744 44.5709 5.604 45.1949 5.604C45.8109 5.604 46.3589 5.744 46.8389 6.024C47.3269 6.304 47.7069 6.688 47.9789 7.176C48.2589 7.664 48.3989 8.22 48.3989 8.844C48.3989 9.476 48.2589 10.04 47.9789 10.536C47.7069 11.032 47.3269 11.42 46.8389 11.7C46.3589 11.98 45.8109 12.12 45.1949 12.12ZM45.1949 11.268C45.6349 11.268 46.0269 11.164 46.3709 10.956C46.7149 10.74 46.9829 10.452 47.1749 10.092C47.3669 9.724 47.4629 9.308 47.4629 8.844C47.4629 8.38 47.3669 7.968 47.1749 7.608C46.9829 7.248 46.7149 6.968 46.3709 6.768C46.0269 6.56 45.6349 6.456 45.1949 6.456C44.7549 6.456 44.3589 6.56 44.0069 6.768C43.6629 6.968 43.3909 7.252 43.1909 7.62C42.9989 7.98 42.9069 8.388 42.9149 8.844C42.9069 9.308 42.9989 9.724 43.1909 10.092C43.3909 10.452 43.6629 10.74 44.0069 10.956C44.3589 11.164 44.7549 11.268 45.1949 11.268ZM50.9536 12L48.7816 5.736L49.7416 5.724L51.4336 10.824L51.1336 10.8L52.9696 6.696H53.5096L55.3576 10.8L54.9976 10.824L56.7256 5.736H57.6736L55.5016 12H54.9736L53.0296 7.536L53.3896 7.56L51.5056 12H50.9536ZM58.7354 12V5.736H59.6234L59.6594 7.044L59.5154 7.104C59.5954 6.832 59.7514 6.584 59.9834 6.36C60.2154 6.136 60.4914 5.956 60.8114 5.82C61.1394 5.676 61.4754 5.604 61.8194 5.604C62.2834 5.604 62.6714 5.696 62.9834 5.88C63.2954 6.064 63.5314 6.348 63.6914 6.732C63.8514 7.116 63.9314 7.604 63.9314 8.196V12H63.0194V8.244C63.0194 7.828 62.9634 7.488 62.8514 7.224C62.7474 6.952 62.5834 6.752 62.3594 6.624C62.1354 6.496 61.8594 6.436 61.5314 6.444C61.2594 6.444 61.0074 6.492 60.7754 6.588C60.5434 6.676 60.3434 6.8 60.1754 6.96C60.0074 7.12 59.8754 7.304 59.7794 7.512C59.6834 7.72 59.6354 7.944 59.6354 8.184V12H59.1914C59.1354 12 59.0714 12 58.9994 12C58.9274 12 58.8394 12 58.7354 12Z" fill="url(#paint0_radial_2_16654)"/>
<g filter="url(#filter0_d_2_16654)">
<path d="M40 18V22.5237L35.7584 25.7152H29.2416L25 22.5237V18L32.5 23.5784L40 18Z" fill="#EB3A4A"/>
</g>
<defs>
<filter id="filter0_d_2_16654" x="21.8966" y="14.8966" width="21.2069" height="13.9222" filterUnits="userSpaceOnUse" color-interpolation-filters="sRGB">
<feFlood flood-opacity="0" result="BackgroundImageFix"/>
<feColorMatrix in="SourceAlpha" type="matrix" values="0 0 0 0 0 0 0 0 0 0 0 0 0 0 0 0 0 0 127 0" result="hardAlpha"/>
<feOffset/>
<feGaussianBlur stdDeviation="1.55172"/>
<feComposite in2="hardAlpha" operator="out"/>
<feColorMatrix type="matrix" values="0 0 0 0 1 0 0 0 0 0.458333 0 0 0 0 0.507297 0 0 0 0.3 0"/>
<feBlend mode="normal" in2="BackgroundImageFix" result="effect1_dropShadow_2_16654"/>
<feBlend mode="normal" in="SourceGraphic" in2="effect1_dropShadow_2_16654" result="shape"/>
</filter>
<radialGradient id="paint0_radial_2_16654" cx="0" cy="0" r="1" gradientUnits="userSpaceOnUse" gradientTransform="translate(31.0408 -9.99997) rotate(10.8587) scale(23.8869 1458.54)">
<stop stop-color="#EB3A4A"/>
<stop offset="1" stop-color="#EB3A4A" stop-opacity="0"/>
</radialGradient>
</defs>
</svg>
